<svg width="758" height="159" viewBox="0 0 758 159" fill="none" xmlns="http://www.w3.org/2000/svg">
<path d="M31.3964 116.672C23.5244 116.672 17.0604 114.816 12.0044 111.104C6.94838 107.328 4.22838 101.952 3.84438 94.976H23.9084C24.1004 97.344 24.8044 99.072 26.0204 100.16C27.2364 101.248 28.8044 101.792 30.7244 101.792C32.4524 101.792 33.8604 101.376 34.9484 100.544C36.1004 99.648 36.6764 98.432 36.6764 96.896C36.6764 94.912 35.7484 93.376 33.8924 92.288C32.0364 91.2 29.0284 89.984 24.8684 88.64C20.4524 87.168 16.8684 85.76 14.1164 84.416C11.4284 83.008 9.06038 80.992 7.01238 78.368C5.02838 75.68 4.03638 72.192 4.03638 67.904C4.03638 63.552 5.12438 59.84 7.30038 56.768C9.47638 53.632 12.4844 51.264 16.3244 49.664C20.1644 48.064 24.5164 47.264 29.3804 47.264C37.2524 47.264 43.5244 49.12 48.1964 52.832C52.9324 56.48 55.4604 61.632 55.7804 68.288H35.3324C35.2684 66.24 34.6284 64.704 33.4124 63.68C32.2604 62.656 30.7564 62.144 28.9004 62.144C27.4924 62.144 26.3404 62.56 25.4444 63.392C24.5484 64.224 24.1004 65.408 24.1004 66.944C24.1004 68.224 24.5804 69.344 25.5404 70.304C26.5644 71.2 27.8124 72 29.2844 72.704C30.7564 73.344 32.9324 74.176 35.8124 75.2C40.1004 76.672 43.6204 78.144 46.3724 79.616C49.1884 81.024 51.5884 83.04 53.5724 85.664C55.6204 88.224 56.6444 91.488 56.6444 95.456C56.6444 99.488 55.6204 103.104 53.5724 106.304C51.5884 109.504 48.6764 112.032 44.8364 113.888C41.0604 115.744 36.5804 116.672 31.3964 116.672ZM120.496 62.144V116H101.584V108.32C99.9836 110.752 97.7756 112.736 94.9596 114.272C92.1436 115.744 88.9116 116.48 85.2636 116.48C78.9916 116.48 74.0316 114.432 70.3836 110.336C66.7996 106.176 65.0076 100.544 65.0076 93.44V62.144H83.7276V91.04C83.7276 94.112 84.5276 96.544 86.1276 98.336C87.7916 100.064 89.9676 100.928 92.6556 100.928C95.4076 100.928 97.5836 100.064 99.1836 98.336C100.784 96.544 101.584 94.112 101.584 91.04V62.144H120.496ZM201.572 61.664C208.356 61.664 213.668 63.712 217.508 67.808C221.412 71.904 223.364 77.504 223.364 84.608V116H204.548V87.104C204.548 84.224 203.748 81.984 202.148 80.384C200.548 78.784 198.372 77.984 195.62 77.984C192.868 77.984 190.692 78.784 189.092 80.384C187.492 81.984 186.692 84.224 186.692 87.104V116H167.876V87.104C167.876 84.224 167.076 81.984 165.476 80.384C163.94 78.784 161.796 77.984 159.044 77.984C156.228 77.984 154.02 78.784 152.42 80.384C150.82 81.984 150.02 84.224 150.02 87.104V116H131.204V62.144H150.02V69.248C151.684 66.944 153.828 65.12 156.452 63.776C159.14 62.368 162.212 61.664 165.668 61.664C169.636 61.664 173.156 62.528 176.228 64.256C179.364 65.984 181.828 68.416 183.62 71.552C185.54 68.608 188.068 66.24 191.204 64.448C194.34 62.592 197.796 61.664 201.572 61.664ZM304.041 61.664C310.825 61.664 316.137 63.712 319.977 67.808C323.881 71.904 325.833 77.504 325.833 84.608V116H307.017V87.104C307.017 84.224 306.217 81.984 304.617 80.384C303.017 78.784 300.841 77.984 298.089 77.984C295.337 77.984 293.161 78.784 291.561 80.384C289.961 81.984 289.161 84.224 289.161 87.104V116H270.345V87.104C270.345 84.224 269.545 81.984 267.945 80.384C266.409 78.784 264.265 77.984 261.513 77.984C258.697 77.984 256.489 78.784 254.889 80.384C253.289 81.984 252.489 84.224 252.489 87.104V116H233.673V62.144H252.489V69.248C254.153 66.944 256.297 65.12 258.921 63.776C261.609 62.368 264.681 61.664 268.137 61.664C272.105 61.664 275.625 62.528 278.697 64.256C281.833 65.984 284.297 68.416 286.089 71.552C288.009 68.608 290.537 66.24 293.673 64.448C296.809 62.592 300.265 61.664 304.041 61.664ZM333.07 89.024C333.07 83.456 334.062 78.592 336.046 74.432C338.094 70.272 340.846 67.072 344.302 64.832C347.822 62.592 351.726 61.472 356.014 61.472C359.726 61.472 362.926 62.208 365.614 63.68C368.302 65.152 370.382 67.136 371.854 69.632V62.144H390.67V116H371.854V108.512C370.382 111.008 368.27 112.992 365.518 114.464C362.83 115.936 359.662 116.672 356.014 116.672C351.726 116.672 347.822 115.552 344.302 113.312C340.846 111.072 338.094 107.872 336.046 103.712C334.062 99.488 333.07 94.592 333.07 89.024ZM371.854 89.024C371.854 85.568 370.894 82.848 368.974 80.864C367.118 78.88 364.814 77.888 362.062 77.888C359.246 77.888 356.91 78.88 355.054 80.864C353.198 82.784 352.27 85.504 352.27 89.024C352.27 92.48 353.198 95.232 355.054 97.28C356.91 99.264 359.246 100.256 362.062 100.256C364.814 100.256 367.118 99.264 368.974 97.28C370.894 95.296 371.854 92.544 371.854 89.024ZM420.208 71.648C422.32 68.576 424.88 66.144 427.888 64.352C430.896 62.56 434.128 61.664 437.584 61.664V81.728H432.304C428.208 81.728 425.168 82.528 423.184 84.128C421.2 85.728 420.208 88.512 420.208 92.48V116H401.392V62.144H420.208V71.648ZM463.145 63.392V74.432H484.745V88.736H463.145V100.928H487.625V116H444.329V48.32H487.625V63.392H463.145ZM493.851 89.024C493.851 83.456 494.843 78.592 496.827 74.432C498.875 70.272 501.627 67.072 505.083 64.832C508.603 62.592 512.507 61.472 516.795 61.472C520.507 61.472 523.707 62.208 526.395 63.68C529.083 65.152 531.163 67.136 532.635 69.632V62.144H551.451V116H532.635V108.512C531.163 111.008 529.051 112.992 526.299 114.464C523.611 115.936 520.443 116.672 516.795 116.672C512.507 116.672 508.603 115.552 505.083 113.312C501.627 111.072 498.875 107.872 496.827 103.712C494.843 99.488 493.851 94.592 493.851 89.024ZM532.635 89.024C532.635 85.568 531.675 82.848 529.755 80.864C527.899 78.88 525.595 77.888 522.843 77.888C520.027 77.888 517.691 78.88 515.835 80.864C513.979 82.784 513.051 85.504 513.051 89.024C513.051 92.48 513.979 95.232 515.835 97.28C517.691 99.264 520.027 100.256 522.843 100.256C525.595 100.256 527.899 99.264 529.755 97.28C531.675 95.296 532.635 92.544 532.635 89.024ZM585.117 116.672C580.253 116.672 575.901 115.872 572.061 114.272C568.285 112.608 565.277 110.368 563.037 107.552C560.861 104.672 559.645 101.44 559.389 97.856H577.629C577.885 99.584 578.685 100.928 580.029 101.888C581.373 102.848 583.037 103.328 585.021 103.328C586.557 103.328 587.773 103.008 588.669 102.368C589.565 101.728 590.013 100.896 590.013 99.872C590.013 98.528 589.277 97.536 587.805 96.896C586.333 96.256 583.901 95.552 580.509 94.784C576.669 94.016 573.469 93.152 570.909 92.192C568.349 91.232 566.109 89.664 564.189 87.488C562.333 85.312 561.405 82.368 561.405 78.656C561.405 75.456 562.269 72.576 563.997 70.016C565.725 67.392 568.253 65.312 571.581 63.776C574.973 62.24 579.037 61.472 583.773 61.472C590.813 61.472 596.349 63.2 600.381 66.656C604.413 70.112 606.749 74.656 607.389 80.288H590.397C590.077 78.56 589.309 77.248 588.093 76.352C586.941 75.392 585.373 74.912 583.389 74.912C581.853 74.912 580.669 75.2 579.837 75.776C579.069 76.352 578.685 77.152 578.685 78.176C578.685 79.456 579.421 80.448 580.893 81.152C582.365 81.792 584.733 82.464 587.997 83.168C591.901 84 595.133 84.928 597.693 85.952C600.317 86.976 602.589 88.64 604.509 90.944C606.493 93.184 607.485 96.256 607.485 100.16C607.485 103.296 606.557 106.112 604.701 108.608C602.909 111.104 600.317 113.088 596.925 114.56C593.597 115.968 589.661 116.672 585.117 116.672ZM668.191 88.448C668.191 89.92 668.095 91.392 667.903 92.864H632.287C632.479 95.808 633.279 98.016 634.687 99.488C636.159 100.896 638.015 101.6 640.255 101.6C643.391 101.6 645.631 100.192 646.975 97.376H667.039C666.207 101.088 664.575 104.416 662.143 107.36C659.775 110.24 656.767 112.512 653.119 114.176C649.471 115.84 645.439 116.672 641.023 116.672C635.711 116.672 630.975 115.552 626.815 113.312C622.719 111.072 619.487 107.872 617.119 103.712C614.815 99.552 613.663 94.656 613.663 89.024C613.663 83.392 614.815 78.528 617.119 74.432C619.423 70.272 622.623 67.072 626.719 64.832C630.879 62.592 635.647 61.472 641.023 61.472C646.335 61.472 651.039 62.56 655.135 64.736C659.231 66.912 662.431 70.048 664.735 74.144C667.039 78.176 668.191 82.944 668.191 88.448ZM648.991 83.744C648.991 81.44 648.223 79.648 646.687 78.368C645.151 77.024 643.231 76.352 640.927 76.352C638.623 76.352 636.735 76.992 635.263 78.272C633.791 79.488 632.831 81.312 632.383 83.744H648.991Z" fill="#FF0909" fill-opacity="0.5"/>
<path d="M31.3964 108.672C23.5244 108.672 17.0604 106.816 12.0044 103.104C6.94838 99.328 4.22838 93.952 3.84438 86.976H23.9084C24.1004 89.344 24.8044 91.072 26.0204 92.16C27.2364 93.248 28.8044 93.792 30.7244 93.792C32.4524 93.792 33.8604 93.376 34.9484 92.544C36.1004 91.648 36.6764 90.432 36.6764 88.896C36.6764 86.912 35.7484 85.376 33.8924 84.288C32.0364 83.2 29.0284 81.984 24.8684 80.64C20.4524 79.168 16.8684 77.76 14.1164 76.416C11.4284 75.008 9.06038 72.992 7.01238 70.368C5.02838 67.68 4.03638 64.192 4.03638 59.904C4.03638 55.552 5.12438 51.84 7.30038 48.768C9.47638 45.632 12.4844 43.264 16.3244 41.664C20.1644 40.064 24.5164 39.264 29.3804 39.264C37.2524 39.264 43.5244 41.12 48.1964 44.832C52.9324 48.48 55.4604 53.632 55.7804 60.288H35.3324C35.2684 58.24 34.6284 56.704 33.4124 55.68C32.2604 54.656 30.7564 54.144 28.9004 54.144C27.4924 54.144 26.3404 54.56 25.4444 55.392C24.5484 56.224 24.1004 57.408 24.1004 58.944C24.1004 60.224 24.5804 61.344 25.5404 62.304C26.5644 63.2 27.8124 64 29.2844 64.704C30.7564 65.344 32.9324 66.176 35.8124 67.2C40.1004 68.672 43.6204 70.144 46.3724 71.616C49.1884 73.024 51.5884 75.04 53.5724 77.664C55.6204 80.224 56.6444 83.488 56.6444 87.456C56.6444 91.488 55.6204 95.104 53.5724 98.304C51.5884 101.504 48.6764 104.032 44.8364 105.888C41.0604 107.744 36.5804 108.672 31.3964 108.672ZM120.496 54.144V108H101.584V100.32C99.9836 102.752 97.7756 104.736 94.9596 106.272C92.1436 107.744 88.9116 108.48 85.2636 108.48C78.9916 108.48 74.0316 106.432 70.3836 102.336C66.7996 98.176 65.0076 92.544 65.0076 85.44V54.144H83.7276V83.04C83.7276 86.112 84.5276 88.544 86.1276 90.336C87.7916 92.064 89.9676 92.928 92.6556 92.928C95.4076 92.928 97.5836 92.064 99.1836 90.336C100.784 88.544 101.584 86.112 101.584 83.04V54.144H120.496ZM201.572 53.664C208.356 53.664 213.668 55.712 217.508 59.808C221.412 63.904 223.364 69.504 223.364 76.608V108H204.548V79.104C204.548 76.224 203.748 73.984 202.148 72.384C200.548 70.784 198.372 69.984 195.62 69.984C192.868 69.984 190.692 70.784 189.092 72.384C187.492 73.984 186.692 76.224 186.692 79.104V108H167.876V79.104C167.876 76.224 167.076 73.984 165.476 72.384C163.94 70.784 161.796 69.984 159.044 69.984C156.228 69.984 154.02 70.784 152.42 72.384C150.82 73.984 150.02 76.224 150.02 79.104V108H131.204V54.144H150.02V61.248C151.684 58.944 153.828 57.12 156.452 55.776C159.14 54.368 162.212 53.664 165.668 53.664C169.636 53.664 173.156 54.528 176.228 56.256C179.364 57.984 181.828 60.416 183.62 63.552C185.54 60.608 188.068 58.24 191.204 56.448C194.34 54.592 197.796 53.664 201.572 53.664ZM304.041 53.664C310.825 53.664 316.137 55.712 319.977 59.808C323.881 63.904 325.833 69.504 325.833 76.608V108H307.017V79.104C307.017 76.224 306.217 73.984 304.617 72.384C303.017 70.784 300.841 69.984 298.089 69.984C295.337 69.984 293.161 70.784 291.561 72.384C289.961 73.984 289.161 76.224 289.161 79.104V108H270.345V79.104C270.345 76.224 269.545 73.984 267.945 72.384C266.409 70.784 264.265 69.984 261.513 69.984C258.697 69.984 256.489 70.784 254.889 72.384C253.289 73.984 252.489 76.224 252.489 79.104V108H233.673V54.144H252.489V61.248C254.153 58.944 256.297 57.12 258.921 55.776C261.609 54.368 264.681 53.664 268.137 53.664C272.105 53.664 275.625 54.528 278.697 56.256C281.833 57.984 284.297 60.416 286.089 63.552C288.009 60.608 290.537 58.24 293.673 56.448C296.809 54.592 300.265 53.664 304.041 53.664ZM333.07 81.024C333.07 75.456 334.062 70.592 336.046 66.432C338.094 62.272 340.846 59.072 344.302 56.832C347.822 54.592 351.726 53.472 356.014 53.472C359.726 53.472 362.926 54.208 365.614 55.68C368.302 57.152 370.382 59.136 371.854 61.632V54.144H390.67V108H371.854V100.512C370.382 103.008 368.27 104.992 365.518 106.464C362.83 107.936 359.662 108.672 356.014 108.672C351.726 108.672 347.822 107.552 344.302 105.312C340.846 103.072 338.094 99.872 336.046 95.712C334.062 91.488 333.07 86.592 333.07 81.024ZM371.854 81.024C371.854 77.568 370.894 74.848 368.974 72.864C367.118 70.88 364.814 69.888 362.062 69.888C359.246 69.888 356.91 70.88 355.054 72.864C353.198 74.784 352.27 77.504 352.27 81.024C352.27 84.48 353.198 87.232 355.054 89.28C356.91 91.264 359.246 92.256 362.062 92.256C364.814 92.256 367.118 91.264 368.974 89.28C370.894 87.296 371.854 84.544 371.854 81.024ZM420.208 63.648C422.32 60.576 424.88 58.144 427.888 56.352C430.896 54.56 434.128 53.664 437.584 53.664V73.728H432.304C428.208 73.728 425.168 74.528 423.184 76.128C421.2 77.728 420.208 80.512 420.208 84.48V108H401.392V54.144H420.208V63.648ZM463.145 55.392V66.432H484.745V80.736H463.145V92.928H487.625V108H444.329V40.32H487.625V55.392H463.145ZM493.851 81.024C493.851 75.456 494.843 70.592 496.827 66.432C498.875 62.272 501.627 59.072 505.083 56.832C508.603 54.592 512.507 53.472 516.795 53.472C520.507 53.472 523.707 54.208 526.395 55.68C529.083 57.152 531.163 59.136 532.635 61.632V54.144H551.451V108H532.635V100.512C531.163 103.008 529.051 104.992 526.299 106.464C523.611 107.936 520.443 108.672 516.795 108.672C512.507 108.672 508.603 107.552 505.083 105.312C501.627 103.072 498.875 99.872 496.827 95.712C494.843 91.488 493.851 86.592 493.851 81.024ZM532.635 81.024C532.635 77.568 531.675 74.848 529.755 72.864C527.899 70.88 525.595 69.888 522.843 69.888C520.027 69.888 517.691 70.88 515.835 72.864C513.979 74.784 513.051 77.504 513.051 81.024C513.051 84.48 513.979 87.232 515.835 89.28C517.691 91.264 520.027 92.256 522.843 92.256C525.595 92.256 527.899 91.264 529.755 89.28C531.675 87.296 532.635 84.544 532.635 81.024ZM585.117 108.672C580.253 108.672 575.901 107.872 572.061 106.272C568.285 104.608 565.277 102.368 563.037 99.552C560.861 96.672 559.645 93.44 559.389 89.856H577.629C577.885 91.584 578.685 92.928 580.029 93.888C581.373 94.848 583.037 95.328 585.021 95.328C586.557 95.328 587.773 95.008 588.669 94.368C589.565 93.728 590.013 92.896 590.013 91.872C590.013 90.528 589.277 89.536 587.805 88.896C586.333 88.256 583.901 87.552 580.509 86.784C576.669 86.016 573.469 85.152 570.909 84.192C568.349 83.232 566.109 81.664 564.189 79.488C562.333 77.312 561.405 74.368 561.405 70.656C561.405 67.456 562.269 64.576 563.997 62.016C565.725 59.392 568.253 57.312 571.581 55.776C574.973 54.24 579.037 53.472 583.773 53.472C590.813 53.472 596.349 55.2 600.381 58.656C604.413 62.112 606.749 66.656 607.389 72.288H590.397C590.077 70.56 589.309 69.248 588.093 68.352C586.941 67.392 585.373 66.912 583.389 66.912C581.853 66.912 580.669 67.2 579.837 67.776C579.069 68.352 578.685 69.152 578.685 70.176C578.685 71.456 579.421 72.448 580.893 73.152C582.365 73.792 584.733 74.464 587.997 75.168C591.901 76 595.133 76.928 597.693 77.952C600.317 78.976 602.589 80.64 604.509 82.944C606.493 85.184 607.485 88.256 607.485 92.16C607.485 95.296 606.557 98.112 604.701 100.608C602.909 103.104 600.317 105.088 596.925 106.56C593.597 107.968 589.661 108.672 585.117 108.672ZM668.191 80.448C668.191 81.92 668.095 83.392 667.903 84.864H632.287C632.479 87.808 633.279 90.016 634.687 91.488C636.159 92.896 638.015 93.6 640.255 93.6C643.391 93.6 645.631 92.192 646.975 89.376H667.039C666.207 93.088 664.575 96.416 662.143 99.36C659.775 102.24 656.767 104.512 653.119 106.176C649.471 107.84 645.439 108.672 641.023 108.672C635.711 108.672 630.975 107.552 626.815 105.312C622.719 103.072 619.487 99.872 617.119 95.712C614.815 91.552 613.663 86.656 613.663 81.024C613.663 75.392 614.815 70.528 617.119 66.432C619.423 62.272 622.623 59.072 626.719 56.832C630.879 54.592 635.647 53.472 641.023 53.472C646.335 53.472 651.039 54.56 655.135 56.736C659.231 58.912 662.431 62.048 664.735 66.144C667.039 70.176 668.191 74.944 668.191 80.448ZM648.991 75.744C648.991 73.44 648.223 71.648 646.687 70.368C645.151 69.024 643.231 68.352 640.927 68.352C638.623 68.352 636.735 68.992 635.263 70.272C633.791 71.488 632.831 73.312 632.383 75.744H648.991Z" fill="#09FFFB" fill-opacity="0.5"/>
<path d="M31.3964 112.672C23.5244 112.672 17.0604 110.816 12.0044 107.104C6.94838 103.328 4.22838 97.952 3.84438 90.976H23.9084C24.1004 93.344 24.8044 95.072 26.0204 96.16C27.2364 97.248 28.8044 97.792 30.7244 97.792C32.4524 97.792 33.8604 97.376 34.9484 96.544C36.1004 95.648 36.6764 94.432 36.6764 92.896C36.6764 90.912 35.7484 89.376 33.8924 88.288C32.0364 87.2 29.0284 85.984 24.8684 84.64C20.4524 83.168 16.8684 81.76 14.1164 80.416C11.4284 79.008 9.06038 76.992 7.01238 74.368C5.02838 71.68 4.03638 68.192 4.03638 63.904C4.03638 59.552 5.12438 55.84 7.30038 52.768C9.47638 49.632 12.4844 47.264 16.3244 45.664C20.1644 44.064 24.5164 43.264 29.3804 43.264C37.2524 43.264 43.5244 45.12 48.1964 48.832C52.9324 52.48 55.4604 57.632 55.7804 64.288H35.3324C35.2684 62.24 34.6284 60.704 33.4124 59.68C32.2604 58.656 30.7564 58.144 28.9004 58.144C27.4924 58.144 26.3404 58.56 25.4444 59.392C24.5484 60.224 24.1004 61.408 24.1004 62.944C24.1004 64.224 24.5804 65.344 25.5404 66.304C26.5644 67.2 27.8124 68 29.2844 68.704C30.7564 69.344 32.9324 70.176 35.8124 71.2C40.1004 72.672 43.6204 74.144 46.3724 75.616C49.1884 77.024 51.5884 79.04 53.5724 81.664C55.6204 84.224 56.6444 87.488 56.6444 91.456C56.6444 95.488 55.6204 99.104 53.5724 102.304C51.5884 105.504 48.6764 108.032 44.8364 109.888C41.0604 111.744 36.5804 112.672 31.3964 112.672ZM120.496 58.144V112H101.584V104.32C99.9836 106.752 97.7756 108.736 94.9596 110.272C92.1436 111.744 88.9116 112.48 85.2636 112.48C78.9916 112.48 74.0316 110.432 70.3836 106.336C66.7996 102.176 65.0076 96.544 65.0076 89.44V58.144H83.7276V87.04C83.7276 90.112 84.5276 92.544 86.1276 94.336C87.7916 96.064 89.9676 96.928 92.6556 96.928C95.4076 96.928 97.5836 96.064 99.1836 94.336C100.784 92.544 101.584 90.112 101.584 87.04V58.144H120.496ZM201.572 57.664C208.356 57.664 213.668 59.712 217.508 63.808C221.412 67.904 223.364 73.504 223.364 80.608V112H204.548V83.104C204.548 80.224 203.748 77.984 202.148 76.384C200.548 74.784 198.372 73.984 195.62 73.984C192.868 73.984 190.692 74.784 189.092 76.384C187.492 77.984 186.692 80.224 186.692 83.104V112H167.876V83.104C167.876 80.224 167.076 77.984 165.476 76.384C163.94 74.784 161.796 73.984 159.044 73.984C156.228 73.984 154.02 74.784 152.42 76.384C150.82 77.984 150.02 80.224 150.02 83.104V112H131.204V58.144H150.02V65.248C151.684 62.944 153.828 61.12 156.452 59.776C159.14 58.368 162.212 57.664 165.668 57.664C169.636 57.664 173.156 58.528 176.228 60.256C179.364 61.984 181.828 64.416 183.62 67.552C185.54 64.608 188.068 62.24 191.204 60.448C194.34 58.592 197.796 57.664 201.572 57.664ZM304.041 57.664C310.825 57.664 316.137 59.712 319.977 63.808C323.881 67.904 325.833 73.504 325.833 80.608V112H307.017V83.104C307.017 80.224 306.217 77.984 304.617 76.384C303.017 74.784 300.841 73.984 298.089 73.984C295.337 73.984 293.161 74.784 291.561 76.384C289.961 77.984 289.161 80.224 289.161 83.104V112H270.345V83.104C270.345 80.224 269.545 77.984 267.945 76.384C266.409 74.784 264.265 73.984 261.513 73.984C258.697 73.984 256.489 74.784 254.889 76.384C253.289 77.984 252.489 80.224 252.489 83.104V112H233.673V58.144H252.489V65.248C254.153 62.944 256.297 61.12 258.921 59.776C261.609 58.368 264.681 57.664 268.137 57.664C272.105 57.664 275.625 58.528 278.697 60.256C281.833 61.984 284.297 64.416 286.089 67.552C288.009 64.608 290.537 62.24 293.673 60.448C296.809 58.592 300.265 57.664 304.041 57.664ZM333.07 85.024C333.07 79.456 334.062 74.592 336.046 70.432C338.094 66.272 340.846 63.072 344.302 60.832C347.822 58.592 351.726 57.472 356.014 57.472C359.726 57.472 362.926 58.208 365.614 59.68C368.302 61.152 370.382 63.136 371.854 65.632V58.144H390.67V112H371.854V104.512C370.382 107.008 368.27 108.992 365.518 110.464C362.83 111.936 359.662 112.672 356.014 112.672C351.726 112.672 347.822 111.552 344.302 109.312C340.846 107.072 338.094 103.872 336.046 99.712C334.062 95.488 333.07 90.592 333.07 85.024ZM371.854 85.024C371.854 81.568 370.894 78.848 368.974 76.864C367.118 74.88 364.814 73.888 362.062 73.888C359.246 73.888 356.91 74.88 355.054 76.864C353.198 78.784 352.27 81.504 352.27 85.024C352.27 88.48 353.198 91.232 355.054 93.28C356.91 95.264 359.246 96.256 362.062 96.256C364.814 96.256 367.118 95.264 368.974 93.28C370.894 91.296 371.854 88.544 371.854 85.024ZM420.208 67.648C422.32 64.576 424.88 62.144 427.888 60.352C430.896 58.56 434.128 57.664 437.584 57.664V77.728H432.304C428.208 77.728 425.168 78.528 423.184 80.128C421.2 81.728 420.208 84.512 420.208 88.48V112H401.392V58.144H420.208V67.648ZM463.145 59.392V70.432H484.745V84.736H463.145V96.928H487.625V112H444.329V44.32H487.625V59.392H463.145ZM493.851 85.024C493.851 79.456 494.843 74.592 496.827 70.432C498.875 66.272 501.627 63.072 505.083 60.832C508.603 58.592 512.507 57.472 516.795 57.472C520.507 57.472 523.707 58.208 526.395 59.68C529.083 61.152 531.163 63.136 532.635 65.632V58.144H551.451V112H532.635V104.512C531.163 107.008 529.051 108.992 526.299 110.464C523.611 111.936 520.443 112.672 516.795 112.672C512.507 112.672 508.603 111.552 505.083 109.312C501.627 107.072 498.875 103.872 496.827 99.712C494.843 95.488 493.851 90.592 493.851 85.024ZM532.635 85.024C532.635 81.568 531.675 78.848 529.755 76.864C527.899 74.88 525.595 73.888 522.843 73.888C520.027 73.888 517.691 74.88 515.835 76.864C513.979 78.784 513.051 81.504 513.051 85.024C513.051 88.48 513.979 91.232 515.835 93.28C517.691 95.264 520.027 96.256 522.843 96.256C525.595 96.256 527.899 95.264 529.755 93.28C531.675 91.296 532.635 88.544 532.635 85.024ZM585.117 112.672C580.253 112.672 575.901 111.872 572.061 110.272C568.285 108.608 565.277 106.368 563.037 103.552C560.861 100.672 559.645 97.44 559.389 93.856H577.629C577.885 95.584 578.685 96.928 580.029 97.888C581.373 98.848 583.037 99.328 585.021 99.328C586.557 99.328 587.773 99.008 588.669 98.368C589.565 97.728 590.013 96.896 590.013 95.872C590.013 94.528 589.277 93.536 587.805 92.896C586.333 92.256 583.901 91.552 580.509 90.784C576.669 90.016 573.469 89.152 570.909 88.192C568.349 87.232 566.109 85.664 564.189 83.488C562.333 81.312 561.405 78.368 561.405 74.656C561.405 71.456 562.269 68.576 563.997 66.016C565.725 63.392 568.253 61.312 571.581 59.776C574.973 58.24 579.037 57.472 583.773 57.472C590.813 57.472 596.349 59.2 600.381 62.656C604.413 66.112 606.749 70.656 607.389 76.288H590.397C590.077 74.56 589.309 73.248 588.093 72.352C586.941 71.392 585.373 70.912 583.389 70.912C581.853 70.912 580.669 71.2 579.837 71.776C579.069 72.352 578.685 73.152 578.685 74.176C578.685 75.456 579.421 76.448 580.893 77.152C582.365 77.792 584.733 78.464 587.997 79.168C591.901 80 595.133 80.928 597.693 81.952C600.317 82.976 602.589 84.64 604.509 86.944C606.493 89.184 607.485 92.256 607.485 96.16C607.485 99.296 606.557 102.112 604.701 104.608C602.909 107.104 600.317 109.088 596.925 110.56C593.597 111.968 589.661 112.672 585.117 112.672ZM668.191 84.448C668.191 85.92 668.095 87.392 667.903 88.864H632.287C632.479 91.808 633.279 94.016 634.687 95.488C636.159 96.896 638.015 97.6 640.255 97.6C643.391 97.6 645.631 96.192 646.975 93.376H667.039C666.207 97.088 664.575 100.416 662.143 103.36C659.775 106.24 656.767 108.512 653.119 110.176C649.471 111.84 645.439 112.672 641.023 112.672C635.711 112.672 630.975 111.552 626.815 109.312C622.719 107.072 619.487 103.872 617.119 99.712C614.815 95.552 613.663 90.656 613.663 85.024C613.663 79.392 614.815 74.528 617.119 70.432C619.423 66.272 622.623 63.072 626.719 60.832C630.879 58.592 635.647 57.472 641.023 57.472C646.335 57.472 651.039 58.56 655.135 60.736C659.231 62.912 662.431 66.048 664.735 70.144C667.039 74.176 668.191 78.944 668.191 84.448ZM648.991 79.744C648.991 77.44 648.223 75.648 646.687 74.368C645.151 73.024 643.231 72.352 640.927 72.352C638.623 72.352 636.735 72.992 635.263 74.272C633.791 75.488 632.831 77.312 632.383 79.744H648.991Z" fill="black"/>
<g clip-path="url(#clip0_12_2040)">
<mask id="mask0_12_2040" style="mask-type:luminance" maskUnits="userSpaceOnUse" x="230" y="29" width="132" height="103">
<path d="M362 29H230V131.915H362V29Z" fill="white"/>
<path d="M361.5 29.5V131.415H230.5V29.5H361.5Z" stroke="white"/>
</mask>
<g mask="url(#mask0_12_2040)">
<path d="M218.321 175.87L376.87 17.3213" stroke="#F52525" stroke-opacity="0.37" stroke-width="2.23729"/>
<path d="M218.321 161.167L376.87 2.6183" stroke="#F52525" stroke-opacity="0.37" stroke-width="2.23729"/>
<path d="M218.321 58.2453L376.87 -100.303" stroke="#F52525" stroke-opacity="0.37" stroke-width="2.23729"/>
<path d="M218.321 146.464L376.87 -12.0847" stroke="#F52525" stroke-opacity="0.37" stroke-width="2.23729"/>
<path d="M218.321 43.5423L376.87 -115.006" stroke="#F52525" stroke-opacity="0.37" stroke-width="2.23729"/>
<path d="M218.321 131.761L376.87 -26.7882" stroke="#F52525" stroke-opacity="0.37" stroke-width="2.23729"/>
<path d="M218.321 117.058L376.87 -41.4911" stroke="#F52525" stroke-opacity="0.37" stroke-width="2.23729"/>
<path d="M218.321 102.355L376.87 -56.1941" stroke="#F52525" stroke-opacity="0.37" stroke-width="2.23729"/>
<path d="M218.321 87.6517L376.87 -70.897" stroke="#F52525" stroke-opacity="0.37" stroke-width="2.23729"/>
<path d="M218.321 72.9487L376.87 -85.6" stroke="#F52525" stroke-opacity="0.37" stroke-width="2.23729"/>
<path d="M218.321 190.573L376.87 32.0242" stroke="#F52525" stroke-opacity="0.37" stroke-width="2.23729"/>
<path d="M218.321 205.276L376.87 46.7272" stroke="#F52525" stroke-opacity="0.37" stroke-width="2.23729"/>
<path d="M218.321 219.979L376.87 61.4307" stroke="#F52525" stroke-opacity="0.37" stroke-width="2.23729"/>
<path d="M218.321 234.682L376.87 76.1336" stroke="#F52525" stroke-opacity="0.37" stroke-width="2.23729"/>
<path d="M218.321 249.385L376.87 90.8366" stroke="#F52525" stroke-opacity="0.37" stroke-width="2.23729"/>
<path d="M218.321 264.088L376.87 105.54" stroke="#F52525" stroke-opacity="0.37" stroke-width="2.23729"/>
<path d="M218.321 278.791L376.87 120.242" stroke="#F52525" stroke-opacity="0.37" stroke-width="2.23729"/>
</g>
</g>
<g clip-path="url(#clip1_12_2040)">
<mask id="mask1_12_2040" style="mask-type:luminance" maskUnits="userSpaceOnUse" x="362" y="29" width="132" height="103">
<path d="M494 29H362V131.915H494V29Z" fill="white"/>
<path d="M493.5 29.5V131.415H362.5V29.5H493.5Z" stroke="white"/>
</mask>
<g mask="url(#mask1_12_2040)">
<path d="M350.321 175.87L508.87 17.3213" stroke="#F52525" stroke-opacity="0.37" stroke-width="2.23729"/>
<path d="M350.321 161.167L508.87 2.6183" stroke="#F52525" stroke-opacity="0.37" stroke-width="2.23729"/>
<path d="M350.321 58.2453L508.87 -100.303" stroke="#F52525" stroke-opacity="0.37" stroke-width="2.23729"/>
<path d="M350.321 146.464L508.87 -12.0847" stroke="#F52525" stroke-opacity="0.37" stroke-width="2.23729"/>
<path d="M350.321 43.5423L508.87 -115.006" stroke="#F52525" stroke-opacity="0.37" stroke-width="2.23729"/>
<path d="M350.321 131.761L508.87 -26.7882" stroke="#F52525" stroke-opacity="0.37" stroke-width="2.23729"/>
<path d="M350.321 117.058L508.87 -41.4911" stroke="#F52525" stroke-opacity="0.37" stroke-width="2.23729"/>
<path d="M350.321 102.355L508.87 -56.1941" stroke="#F52525" stroke-opacity="0.37" stroke-width="2.23729"/>
<path d="M350.321 87.6517L508.87 -70.897" stroke="#F52525" stroke-opacity="0.37" stroke-width="2.23729"/>
<path d="M350.321 72.9487L508.87 -85.6" stroke="#F52525" stroke-opacity="0.37" stroke-width="2.23729"/>
<path d="M350.321 190.573L508.87 32.0242" stroke="#F52525" stroke-opacity="0.37" stroke-width="2.23729"/>
<path d="M350.321 205.276L508.87 46.7272" stroke="#F52525" stroke-opacity="0.37" stroke-width="2.23729"/>
<path d="M350.321 219.979L508.87 61.4307" stroke="#F52525" stroke-opacity="0.37" stroke-width="2.23729"/>
<path d="M350.321 234.682L508.87 76.1336" stroke="#F52525" stroke-opacity="0.37" stroke-width="2.23729"/>
<path d="M350.321 249.385L508.87 90.8366" stroke="#F52525" stroke-opacity="0.37" stroke-width="2.23729"/>
<path d="M350.321 264.088L508.87 105.54" stroke="#F52525" stroke-opacity="0.37" stroke-width="2.23729"/>
<path d="M350.321 278.791L508.87 120.242" stroke="#F52525" stroke-opacity="0.37" stroke-width="2.23729"/>
</g>
</g>
<g clip-path="url(#clip2_12_2040)">
<mask id="mask2_12_2040" style="mask-type:luminance" maskUnits="userSpaceOnUse" x="494" y="29" width="132" height="103">
<path d="M626 29H494V131.915H626V29Z" fill="white"/>
<path d="M625.5 29.5V131.415H494.5V29.5H625.5Z" stroke="white"/>
</mask>
<g mask="url(#mask2_12_2040)">
<path d="M482.321 175.87L640.87 17.3213" stroke="#F52525" stroke-opacity="0.37" stroke-width="2.23729"/>
<path d="M482.321 161.167L640.87 2.6183" stroke="#F52525" stroke-opacity="0.37" stroke-width="2.23729"/>
<path d="M482.321 58.2453L640.87 -100.303" stroke="#F52525" stroke-opacity="0.37" stroke-width="2.23729"/>
<path d="M482.321 146.464L640.87 -12.0847" stroke="#F52525" stroke-opacity="0.37" stroke-width="2.23729"/>
<path d="M482.321 43.5423L640.87 -115.006" stroke="#F52525" stroke-opacity="0.37" stroke-width="2.23729"/>
<path d="M482.321 131.761L640.87 -26.7882" stroke="#F52525" stroke-opacity="0.37" stroke-width="2.23729"/>
<path d="M482.321 117.058L640.87 -41.4911" stroke="#F52525" stroke-opacity="0.37" stroke-width="2.23729"/>
<path d="M482.321 102.355L640.87 -56.1941" stroke="#F52525" stroke-opacity="0.37" stroke-width="2.23729"/>
<path d="M482.321 87.6517L640.87 -70.897" stroke="#F52525" stroke-opacity="0.37" stroke-width="2.23729"/>
<path d="M482.321 72.9487L640.87 -85.6" stroke="#F52525" stroke-opacity="0.37" stroke-width="2.23729"/>
<path d="M482.321 190.573L640.87 32.0242" stroke="#F52525" stroke-opacity="0.37" stroke-width="2.23729"/>
<path d="M482.321 205.276L640.87 46.7272" stroke="#F52525" stroke-opacity="0.37" stroke-width="2.23729"/>
<path d="M482.321 219.979L640.87 61.4307" stroke="#F52525" stroke-opacity="0.37" stroke-width="2.23729"/>
<path d="M482.321 234.682L640.87 76.1336" stroke="#F52525" stroke-opacity="0.37" stroke-width="2.23729"/>
<path d="M482.321 249.385L640.87 90.8366" stroke="#F52525" stroke-opacity="0.37" stroke-width="2.23729"/>
<path d="M482.321 264.088L640.87 105.54" stroke="#F52525" stroke-opacity="0.37" stroke-width="2.23729"/>
<path d="M482.321 278.791L640.87 120.242" stroke="#F52525" stroke-opacity="0.37" stroke-width="2.23729"/>
</g>
</g>
<mask id="mask3_12_2040" style="mask-type:luminance" maskUnits="userSpaceOnUse" x="626" y="29" width="58" height="103">
<path d="M684 29H626V132H684V29Z" fill="white"/>
<path d="M683.5 29.5V131.5H626.5V29.5H683.5Z" stroke="white"/>
</mask>
<g mask="url(#mask3_12_2040)">
<path d="M614.321 175.87L772.87 17.3213" stroke="#F52525" stroke-opacity="0.37" stroke-width="2.23729"/>
<path d="M614.321 161.167L772.87 2.6183" stroke="#F52525" stroke-opacity="0.37" stroke-width="2.23729"/>
<path d="M614.321 58.2453L772.87 -100.303" stroke="#F52525" stroke-opacity="0.37" stroke-width="2.23729"/>
<path d="M614.321 146.464L772.87 -12.0847" stroke="#F52525" stroke-opacity="0.37" stroke-width="2.23729"/>
<path d="M614.321 43.5423L772.87 -115.006" stroke="#F52525" stroke-opacity="0.37" stroke-width="2.23729"/>
<path d="M614.321 131.761L772.87 -26.7882" stroke="#F52525" stroke-opacity="0.37" stroke-width="2.23729"/>
<path d="M614.321 117.058L772.87 -41.4911" stroke="#F52525" stroke-opacity="0.37" stroke-width="2.23729"/>
<path d="M614.321 102.355L772.87 -56.1941" stroke="#F52525" stroke-opacity="0.37" stroke-width="2.23729"/>
<path d="M614.321 87.6517L772.87 -70.897" stroke="#F52525" stroke-opacity="0.37" stroke-width="2.23729"/>
<path d="M614.321 72.9487L772.87 -85.6" stroke="#F52525" stroke-opacity="0.37" stroke-width="2.23729"/>
<path d="M614.321 190.573L772.87 32.0242" stroke="#F52525" stroke-opacity="0.37" stroke-width="2.23729"/>
<path d="M614.321 205.276L772.87 46.7272" stroke="#F52525" stroke-opacity="0.37" stroke-width="2.23729"/>
<path d="M614.321 219.979L772.87 61.4307" stroke="#F52525" stroke-opacity="0.37" stroke-width="2.23729"/>
<path d="M614.321 234.682L772.87 76.1336" stroke="#F52525" stroke-opacity="0.37" stroke-width="2.23729"/>
<path d="M614.321 249.385L772.87 90.8366" stroke="#F52525" stroke-opacity="0.37" stroke-width="2.23729"/>
<path d="M614.321 264.088L772.87 105.54" stroke="#F52525" stroke-opacity="0.37" stroke-width="2.23729"/>
<path d="M614.321 278.791L772.87 120.242" stroke="#F52525" stroke-opacity="0.37" stroke-width="2.23729"/>
</g>
<defs>
<clipPath id="clip0_12_2040">
<rect width="132" height="103" fill="white" transform="translate(230 29)"/>
</clipPath>
<clipPath id="clip1_12_2040">
<rect width="132" height="103" fill="white" transform="translate(362 29)"/>
</clipPath>
<clipPath id="clip2_12_2040">
<rect width="132" height="103" fill="white" transform="translate(494 29)"/>
</clipPath>
</defs>
</svg>
