<svg width="758" height="159" viewBox="0 0 758 159" fill="none" xmlns="http://www.w3.org/2000/svg">
<path d="M310.35 121.672C302.478 121.672 296.014 119.816 290.958 116.104C285.902 112.328 283.182 106.952 282.798 99.976H302.862C303.054 102.344 303.758 104.072 304.974 105.16C306.19 106.248 307.758 106.792 309.678 106.792C311.406 106.792 312.814 106.376 313.902 105.544C315.054 104.648 315.63 103.432 315.63 101.896C315.63 99.912 314.702 98.376 312.846 97.288C310.99 96.2 307.982 94.984 303.822 93.64C299.406 92.168 295.822 90.76 293.07 89.416C290.382 88.008 288.014 85.992 285.966 83.368C283.982 80.68 282.99 77.192 282.99 72.904C282.99 68.552 284.078 64.84 286.254 61.768C288.43 58.632 291.438 56.264 295.278 54.664C299.118 53.064 303.47 52.264 308.334 52.264C316.206 52.264 322.478 54.12 327.15 57.832C331.886 61.48 334.414 66.632 334.734 73.288H314.286C314.222 71.24 313.582 69.704 312.366 68.68C311.214 67.656 309.71 67.144 307.854 67.144C306.446 67.144 305.294 67.56 304.398 68.392C303.502 69.224 303.054 70.408 303.054 71.944C303.054 73.224 303.534 74.344 304.494 75.304C305.518 76.2 306.766 77 308.238 77.704C309.71 78.344 311.886 79.176 314.766 80.2C319.054 81.672 322.574 83.144 325.326 84.616C328.142 86.024 330.542 88.04 332.526 90.664C334.574 93.224 335.598 96.488 335.598 100.456C335.598 104.488 334.574 108.104 332.526 111.304C330.542 114.504 327.63 117.032 323.79 118.888C320.014 120.744 315.534 121.672 310.35 121.672ZM363.161 68.392V79.432H384.761V93.736H363.161V105.928H387.641V121H344.345V53.32H387.641V68.392H363.161Z" fill="#FF0909" fill-opacity="0.3"/>
<path d="M310.35 106.672C302.478 106.672 296.014 104.816 290.958 101.104C285.902 97.328 283.182 91.952 282.798 84.976H302.862C303.054 87.344 303.758 89.072 304.974 90.16C306.19 91.248 307.758 91.792 309.678 91.792C311.406 91.792 312.814 91.376 313.902 90.544C315.054 89.648 315.63 88.432 315.63 86.896C315.63 84.912 314.702 83.376 312.846 82.288C310.99 81.2 307.982 79.984 303.822 78.64C299.406 77.168 295.822 75.76 293.07 74.416C290.382 73.008 288.014 70.992 285.966 68.368C283.982 65.68 282.99 62.192 282.99 57.904C282.99 53.552 284.078 49.84 286.254 46.768C288.43 43.632 291.438 41.264 295.278 39.664C299.118 38.064 303.47 37.264 308.334 37.264C316.206 37.264 322.478 39.12 327.15 42.832C331.886 46.48 334.414 51.632 334.734 58.288H314.286C314.222 56.24 313.582 54.704 312.366 53.68C311.214 52.656 309.71 52.144 307.854 52.144C306.446 52.144 305.294 52.56 304.398 53.392C303.502 54.224 303.054 55.408 303.054 56.944C303.054 58.224 303.534 59.344 304.494 60.304C305.518 61.2 306.766 62 308.238 62.704C309.71 63.344 311.886 64.176 314.766 65.2C319.054 66.672 322.574 68.144 325.326 69.616C328.142 71.024 330.542 73.04 332.526 75.664C334.574 78.224 335.598 81.488 335.598 85.456C335.598 89.488 334.574 93.104 332.526 96.304C330.542 99.504 327.63 102.032 323.79 103.888C320.014 105.744 315.534 106.672 310.35 106.672ZM363.161 53.392V64.432H384.761V78.736H363.161V90.928H387.641V106H344.345V38.32H387.641V53.392H363.161Z" fill="#09FFFB" fill-opacity="0.3"/>
<path d="M309.35 112.672C301.478 112.672 295.014 110.816 289.958 107.104C284.902 103.328 282.182 97.952 281.798 90.976H301.862C302.054 93.344 302.758 95.072 303.974 96.16C305.19 97.248 306.758 97.792 308.678 97.792C310.406 97.792 311.814 97.376 312.902 96.544C314.054 95.648 314.63 94.432 314.63 92.896C314.63 90.912 313.702 89.376 311.846 88.288C309.99 87.2 306.982 85.984 302.822 84.64C298.406 83.168 294.822 81.76 292.07 80.416C289.382 79.008 287.014 76.992 284.966 74.368C282.982 71.68 281.99 68.192 281.99 63.904C281.99 59.552 283.078 55.84 285.254 52.768C287.43 49.632 290.438 47.264 294.278 45.664C298.118 44.064 302.47 43.264 307.334 43.264C315.206 43.264 321.478 45.12 326.15 48.832C330.886 52.48 333.414 57.632 333.734 64.288H313.286C313.222 62.24 312.582 60.704 311.366 59.68C310.214 58.656 308.71 58.144 306.854 58.144C305.446 58.144 304.294 58.56 303.398 59.392C302.502 60.224 302.054 61.408 302.054 62.944C302.054 64.224 302.534 65.344 303.494 66.304C304.518 67.2 305.766 68 307.238 68.704C308.71 69.344 310.886 70.176 313.766 71.2C318.054 72.672 321.574 74.144 324.326 75.616C327.142 77.024 329.542 79.04 331.526 81.664C333.574 84.224 334.598 87.488 334.598 91.456C334.598 95.488 333.574 99.104 331.526 102.304C329.542 105.504 326.63 108.032 322.79 109.888C319.014 111.744 314.534 112.672 309.35 112.672ZM362.161 59.392V70.432H383.761V84.736H362.161V96.928H386.641V112H343.345V44.32H386.641V59.392H362.161Z" fill="#FBF4BC" fill-opacity="0.87"/>
<mask id="mask0_17_2" style="mask-type:luminance" maskUnits="userSpaceOnUse" x="336" y="28" width="66" height="103">
<path d="M402 28H336V131H402V28Z" fill="white"/>
<path d="M401.5 28.5V130.5H336.5V28.5H401.5Z" stroke="white"/>
</mask>
<g mask="url(#mask0_17_2)">
<path d="M324.321 174.87L482.87 16.3213" stroke="#F52525" stroke-opacity="0.37" stroke-width="2.23729"/>
<path d="M324.321 160.167L482.87 1.61829" stroke="#F52525" stroke-opacity="0.37" stroke-width="2.23729"/>
<path d="M324.321 57.2453L482.87 -101.303" stroke="#F52525" stroke-opacity="0.37" stroke-width="2.23729"/>
<path d="M324.321 145.464L482.87 -13.0847" stroke="#F52525" stroke-opacity="0.37" stroke-width="2.23729"/>
<path d="M324.321 42.5423L482.87 -116.006" stroke="#F52525" stroke-opacity="0.37" stroke-width="2.23729"/>
<path d="M324.321 130.761L482.87 -27.7882" stroke="#F52525" stroke-opacity="0.37" stroke-width="2.23729"/>
<path d="M324.321 116.058L482.87 -42.4911" stroke="#F52525" stroke-opacity="0.37" stroke-width="2.23729"/>
<path d="M324.321 101.355L482.87 -57.1941" stroke="#F52525" stroke-opacity="0.37" stroke-width="2.23729"/>
<path d="M324.321 86.6517L482.87 -71.897" stroke="#F52525" stroke-opacity="0.37" stroke-width="2.23729"/>
<path d="M324.321 71.9487L482.87 -86.6" stroke="#F52525" stroke-opacity="0.37" stroke-width="2.23729"/>
<path d="M324.321 189.573L482.87 31.0242" stroke="#F52525" stroke-opacity="0.37" stroke-width="2.23729"/>
<path d="M324.321 204.276L482.87 45.7272" stroke="#F52525" stroke-opacity="0.37" stroke-width="2.23729"/>
<path d="M324.321 218.979L482.87 60.4307" stroke="#F52525" stroke-opacity="0.37" stroke-width="2.23729"/>
<path d="M324.321 233.682L482.87 75.1336" stroke="#F52525" stroke-opacity="0.37" stroke-width="2.23729"/>
<path d="M324.321 248.385L482.87 89.8366" stroke="#F52525" stroke-opacity="0.37" stroke-width="2.23729"/>
<path d="M324.321 263.088L482.87 104.54" stroke="#F52525" stroke-opacity="0.37" stroke-width="2.23729"/>
<path d="M324.321 277.791L482.87 119.243" stroke="#F52525" stroke-opacity="0.37" stroke-width="2.23729"/>
</g>
</svg>
