<svg width="758" height="159" viewBox="0 0 758 159" fill="none" xmlns="http://www.w3.org/2000/svg">
<path d="M31.3964 121.672C23.5244 121.672 17.0604 119.816 12.0044 116.104C6.94838 112.328 4.22838 106.952 3.84438 99.976H23.9084C24.1004 102.344 24.8044 104.072 26.0204 105.16C27.2364 106.248 28.8044 106.792 30.7244 106.792C32.4524 106.792 33.8604 106.376 34.9484 105.544C36.1004 104.648 36.6764 103.432 36.6764 101.896C36.6764 99.912 35.7484 98.376 33.8924 97.288C32.0364 96.2 29.0284 94.984 24.8684 93.64C20.4524 92.168 16.8684 90.76 14.1164 89.416C11.4284 88.008 9.06038 85.992 7.01238 83.368C5.02838 80.68 4.03638 77.192 4.03638 72.904C4.03638 68.552 5.12438 64.84 7.30038 61.768C9.47638 58.632 12.4844 56.264 16.3244 54.664C20.1644 53.064 24.5164 52.264 29.3804 52.264C37.2524 52.264 43.5244 54.12 48.1964 57.832C52.9324 61.48 55.4604 66.632 55.7804 73.288H35.3324C35.2684 71.24 34.6284 69.704 33.4124 68.68C32.2604 67.656 30.7564 67.144 28.9004 67.144C27.4924 67.144 26.3404 67.56 25.4444 68.392C24.5484 69.224 24.1004 70.408 24.1004 71.944C24.1004 73.224 24.5804 74.344 25.5404 75.304C26.5644 76.2 27.8124 77 29.2844 77.704C30.7564 78.344 32.9324 79.176 35.8124 80.2C40.1004 81.672 43.6204 83.144 46.3724 84.616C49.1884 86.024 51.5884 88.04 53.5724 90.664C55.6204 93.224 56.6444 96.488 56.6444 100.456C56.6444 104.488 55.6204 108.104 53.5724 111.304C51.5884 114.504 48.6764 117.032 44.8364 118.888C41.0604 120.744 36.5804 121.672 31.3964 121.672ZM120.496 67.144V121H101.584V113.32C99.9836 115.752 97.7756 117.736 94.9596 119.272C92.1436 120.744 88.9116 121.48 85.2636 121.48C78.9916 121.48 74.0316 119.432 70.3836 115.336C66.7996 111.176 65.0076 105.544 65.0076 98.44V67.144H83.7276V96.04C83.7276 99.112 84.5276 101.544 86.1276 103.336C87.7916 105.064 89.9676 105.928 92.6556 105.928C95.4076 105.928 97.5836 105.064 99.1836 103.336C100.784 101.544 101.584 99.112 101.584 96.04V67.144H120.496ZM201.572 66.664C208.356 66.664 213.668 68.712 217.508 72.808C221.412 76.904 223.364 82.504 223.364 89.608V121H204.548V92.104C204.548 89.224 203.748 86.984 202.148 85.384C200.548 83.784 198.372 82.984 195.62 82.984C192.868 82.984 190.692 83.784 189.092 85.384C187.492 86.984 186.692 89.224 186.692 92.104V121H167.876V92.104C167.876 89.224 167.076 86.984 165.476 85.384C163.94 83.784 161.796 82.984 159.044 82.984C156.228 82.984 154.02 83.784 152.42 85.384C150.82 86.984 150.02 89.224 150.02 92.104V121H131.204V67.144H150.02V74.248C151.684 71.944 153.828 70.12 156.452 68.776C159.14 67.368 162.212 66.664 165.668 66.664C169.636 66.664 173.156 67.528 176.228 69.256C179.364 70.984 181.828 73.416 183.62 76.552C185.54 73.608 188.068 71.24 191.204 69.448C194.34 67.592 197.796 66.664 201.572 66.664ZM304.041 66.664C310.825 66.664 316.137 68.712 319.977 72.808C323.881 76.904 325.833 82.504 325.833 89.608V121H307.017V92.104C307.017 89.224 306.217 86.984 304.617 85.384C303.017 83.784 300.841 82.984 298.089 82.984C295.337 82.984 293.161 83.784 291.561 85.384C289.961 86.984 289.161 89.224 289.161 92.104V121H270.345V92.104C270.345 89.224 269.545 86.984 267.945 85.384C266.409 83.784 264.265 82.984 261.513 82.984C258.697 82.984 256.489 83.784 254.889 85.384C253.289 86.984 252.489 89.224 252.489 92.104V121H233.673V67.144H252.489V74.248C254.153 71.944 256.297 70.12 258.921 68.776C261.609 67.368 264.681 66.664 268.137 66.664C272.105 66.664 275.625 67.528 278.697 69.256C281.833 70.984 284.297 73.416 286.089 76.552C288.009 73.608 290.537 71.24 293.673 69.448C296.809 67.592 300.265 66.664 304.041 66.664ZM333.07 94.024C333.07 88.456 334.062 83.592 336.046 79.432C338.094 75.272 340.846 72.072 344.302 69.832C347.822 67.592 351.726 66.472 356.014 66.472C359.726 66.472 362.926 67.208 365.614 68.68C368.302 70.152 370.382 72.136 371.854 74.632V67.144H390.67V121H371.854V113.512C370.382 116.008 368.27 117.992 365.518 119.464C362.83 120.936 359.662 121.672 356.014 121.672C351.726 121.672 347.822 120.552 344.302 118.312C340.846 116.072 338.094 112.872 336.046 108.712C334.062 104.488 333.07 99.592 333.07 94.024ZM371.854 94.024C371.854 90.568 370.894 87.848 368.974 85.864C367.118 83.88 364.814 82.888 362.062 82.888C359.246 82.888 356.91 83.88 355.054 85.864C353.198 87.784 352.27 90.504 352.27 94.024C352.27 97.48 353.198 100.232 355.054 102.28C356.91 104.264 359.246 105.256 362.062 105.256C364.814 105.256 367.118 104.264 368.974 102.28C370.894 100.296 371.854 97.544 371.854 94.024ZM420.208 76.648C422.32 73.576 424.88 71.144 427.888 69.352C430.896 67.56 434.128 66.664 437.584 66.664V86.728H432.304C428.208 86.728 425.168 87.528 423.184 89.128C421.2 90.728 420.208 93.512 420.208 97.48V121H401.392V67.144H420.208V76.648ZM463.145 68.392V79.432H484.745V93.736H463.145V105.928H487.625V121H444.329V53.32H487.625V68.392H463.145ZM493.851 94.024C493.851 88.456 494.843 83.592 496.827 79.432C498.875 75.272 501.627 72.072 505.083 69.832C508.603 67.592 512.507 66.472 516.795 66.472C520.507 66.472 523.707 67.208 526.395 68.68C529.083 70.152 531.163 72.136 532.635 74.632V67.144H551.451V121H532.635V113.512C531.163 116.008 529.051 117.992 526.299 119.464C523.611 120.936 520.443 121.672 516.795 121.672C512.507 121.672 508.603 120.552 505.083 118.312C501.627 116.072 498.875 112.872 496.827 108.712C494.843 104.488 493.851 99.592 493.851 94.024ZM532.635 94.024C532.635 90.568 531.675 87.848 529.755 85.864C527.899 83.88 525.595 82.888 522.843 82.888C520.027 82.888 517.691 83.88 515.835 85.864C513.979 87.784 513.051 90.504 513.051 94.024C513.051 97.48 513.979 100.232 515.835 102.28C517.691 104.264 520.027 105.256 522.843 105.256C525.595 105.256 527.899 104.264 529.755 102.28C531.675 100.296 532.635 97.544 532.635 94.024ZM585.117 121.672C580.253 121.672 575.901 120.872 572.061 119.272C568.285 117.608 565.277 115.368 563.037 112.552C560.861 109.672 559.645 106.44 559.389 102.856H577.629C577.885 104.584 578.685 105.928 580.029 106.888C581.373 107.848 583.037 108.328 585.021 108.328C586.557 108.328 587.773 108.008 588.669 107.368C589.565 106.728 590.013 105.896 590.013 104.872C590.013 103.528 589.277 102.536 587.805 101.896C586.333 101.256 583.901 100.552 580.509 99.784C576.669 99.016 573.469 98.152 570.909 97.192C568.349 96.232 566.109 94.664 564.189 92.488C562.333 90.312 561.405 87.368 561.405 83.656C561.405 80.456 562.269 77.576 563.997 75.016C565.725 72.392 568.253 70.312 571.581 68.776C574.973 67.24 579.037 66.472 583.773 66.472C590.813 66.472 596.349 68.2 600.381 71.656C604.413 75.112 606.749 79.656 607.389 85.288H590.397C590.077 83.56 589.309 82.248 588.093 81.352C586.941 80.392 585.373 79.912 583.389 79.912C581.853 79.912 580.669 80.2 579.837 80.776C579.069 81.352 578.685 82.152 578.685 83.176C578.685 84.456 579.421 85.448 580.893 86.152C582.365 86.792 584.733 87.464 587.997 88.168C591.901 89 595.133 89.928 597.693 90.952C600.317 91.976 602.589 93.64 604.509 95.944C606.493 98.184 607.485 101.256 607.485 105.16C607.485 108.296 606.557 111.112 604.701 113.608C602.909 116.104 600.317 118.088 596.925 119.56C593.597 120.968 589.661 121.672 585.117 121.672ZM668.191 93.448C668.191 94.92 668.095 96.392 667.903 97.864H632.287C632.479 100.808 633.279 103.016 634.687 104.488C636.159 105.896 638.015 106.6 640.255 106.6C643.391 106.6 645.631 105.192 646.975 102.376H667.039C666.207 106.088 664.575 109.416 662.143 112.36C659.775 115.24 656.767 117.512 653.119 119.176C649.471 120.84 645.439 121.672 641.023 121.672C635.711 121.672 630.975 120.552 626.815 118.312C622.719 116.072 619.487 112.872 617.119 108.712C614.815 104.552 613.663 99.656 613.663 94.024C613.663 88.392 614.815 83.528 617.119 79.432C619.423 75.272 622.623 72.072 626.719 69.832C630.879 67.592 635.647 66.472 641.023 66.472C646.335 66.472 651.039 67.56 655.135 69.736C659.231 71.912 662.431 75.048 664.735 79.144C667.039 83.176 668.191 87.944 668.191 93.448ZM648.991 88.744C648.991 86.44 648.223 84.648 646.687 83.368C645.151 82.024 643.231 81.352 640.927 81.352C638.623 81.352 636.735 81.992 635.263 83.272C633.791 84.488 632.831 86.312 632.383 88.744H648.991Z" fill="#FF0909" fill-opacity="0.3"/>
<path d="M31.3964 106.672C23.5244 106.672 17.0604 104.816 12.0044 101.104C6.94838 97.328 4.22838 91.952 3.84438 84.976H23.9084C24.1004 87.344 24.8044 89.072 26.0204 90.16C27.2364 91.248 28.8044 91.792 30.7244 91.792C32.4524 91.792 33.8604 91.376 34.9484 90.544C36.1004 89.648 36.6764 88.432 36.6764 86.896C36.6764 84.912 35.7484 83.376 33.8924 82.288C32.0364 81.2 29.0284 79.984 24.8684 78.64C20.4524 77.168 16.8684 75.76 14.1164 74.416C11.4284 73.008 9.06038 70.992 7.01238 68.368C5.02838 65.68 4.03638 62.192 4.03638 57.904C4.03638 53.552 5.12438 49.84 7.30038 46.768C9.47638 43.632 12.4844 41.264 16.3244 39.664C20.1644 38.064 24.5164 37.264 29.3804 37.264C37.2524 37.264 43.5244 39.12 48.1964 42.832C52.9324 46.48 55.4604 51.632 55.7804 58.288H35.3324C35.2684 56.24 34.6284 54.704 33.4124 53.68C32.2604 52.656 30.7564 52.144 28.9004 52.144C27.4924 52.144 26.3404 52.56 25.4444 53.392C24.5484 54.224 24.1004 55.408 24.1004 56.944C24.1004 58.224 24.5804 59.344 25.5404 60.304C26.5644 61.2 27.8124 62 29.2844 62.704C30.7564 63.344 32.9324 64.176 35.8124 65.2C40.1004 66.672 43.6204 68.144 46.3724 69.616C49.1884 71.024 51.5884 73.04 53.5724 75.664C55.6204 78.224 56.6444 81.488 56.6444 85.456C56.6444 89.488 55.6204 93.104 53.5724 96.304C51.5884 99.504 48.6764 102.032 44.8364 103.888C41.0604 105.744 36.5804 106.672 31.3964 106.672ZM120.496 52.144V106H101.584V98.32C99.9836 100.752 97.7756 102.736 94.9596 104.272C92.1436 105.744 88.9116 106.48 85.2636 106.48C78.9916 106.48 74.0316 104.432 70.3836 100.336C66.7996 96.176 65.0076 90.544 65.0076 83.44V52.144H83.7276V81.04C83.7276 84.112 84.5276 86.544 86.1276 88.336C87.7916 90.064 89.9676 90.928 92.6556 90.928C95.4076 90.928 97.5836 90.064 99.1836 88.336C100.784 86.544 101.584 84.112 101.584 81.04V52.144H120.496ZM201.572 51.664C208.356 51.664 213.668 53.712 217.508 57.808C221.412 61.904 223.364 67.504 223.364 74.608V106H204.548V77.104C204.548 74.224 203.748 71.984 202.148 70.384C200.548 68.784 198.372 67.984 195.62 67.984C192.868 67.984 190.692 68.784 189.092 70.384C187.492 71.984 186.692 74.224 186.692 77.104V106H167.876V77.104C167.876 74.224 167.076 71.984 165.476 70.384C163.94 68.784 161.796 67.984 159.044 67.984C156.228 67.984 154.02 68.784 152.42 70.384C150.82 71.984 150.02 74.224 150.02 77.104V106H131.204V52.144H150.02V59.248C151.684 56.944 153.828 55.12 156.452 53.776C159.14 52.368 162.212 51.664 165.668 51.664C169.636 51.664 173.156 52.528 176.228 54.256C179.364 55.984 181.828 58.416 183.62 61.552C185.54 58.608 188.068 56.24 191.204 54.448C194.34 52.592 197.796 51.664 201.572 51.664ZM304.041 51.664C310.825 51.664 316.137 53.712 319.977 57.808C323.881 61.904 325.833 67.504 325.833 74.608V106H307.017V77.104C307.017 74.224 306.217 71.984 304.617 70.384C303.017 68.784 300.841 67.984 298.089 67.984C295.337 67.984 293.161 68.784 291.561 70.384C289.961 71.984 289.161 74.224 289.161 77.104V106H270.345V77.104C270.345 74.224 269.545 71.984 267.945 70.384C266.409 68.784 264.265 67.984 261.513 67.984C258.697 67.984 256.489 68.784 254.889 70.384C253.289 71.984 252.489 74.224 252.489 77.104V106H233.673V52.144H252.489V59.248C254.153 56.944 256.297 55.12 258.921 53.776C261.609 52.368 264.681 51.664 268.137 51.664C272.105 51.664 275.625 52.528 278.697 54.256C281.833 55.984 284.297 58.416 286.089 61.552C288.009 58.608 290.537 56.24 293.673 54.448C296.809 52.592 300.265 51.664 304.041 51.664ZM333.07 79.024C333.07 73.456 334.062 68.592 336.046 64.432C338.094 60.272 340.846 57.072 344.302 54.832C347.822 52.592 351.726 51.472 356.014 51.472C359.726 51.472 362.926 52.208 365.614 53.68C368.302 55.152 370.382 57.136 371.854 59.632V52.144H390.67V106H371.854V98.512C370.382 101.008 368.27 102.992 365.518 104.464C362.83 105.936 359.662 106.672 356.014 106.672C351.726 106.672 347.822 105.552 344.302 103.312C340.846 101.072 338.094 97.872 336.046 93.712C334.062 89.488 333.07 84.592 333.07 79.024ZM371.854 79.024C371.854 75.568 370.894 72.848 368.974 70.864C367.118 68.88 364.814 67.888 362.062 67.888C359.246 67.888 356.91 68.88 355.054 70.864C353.198 72.784 352.27 75.504 352.27 79.024C352.27 82.48 353.198 85.232 355.054 87.28C356.91 89.264 359.246 90.256 362.062 90.256C364.814 90.256 367.118 89.264 368.974 87.28C370.894 85.296 371.854 82.544 371.854 79.024ZM420.208 61.648C422.32 58.576 424.88 56.144 427.888 54.352C430.896 52.56 434.128 51.664 437.584 51.664V71.728H432.304C428.208 71.728 425.168 72.528 423.184 74.128C421.2 75.728 420.208 78.512 420.208 82.48V106H401.392V52.144H420.208V61.648ZM463.145 53.392V64.432H484.745V78.736H463.145V90.928H487.625V106H444.329V38.32H487.625V53.392H463.145ZM493.851 79.024C493.851 73.456 494.843 68.592 496.827 64.432C498.875 60.272 501.627 57.072 505.083 54.832C508.603 52.592 512.507 51.472 516.795 51.472C520.507 51.472 523.707 52.208 526.395 53.68C529.083 55.152 531.163 57.136 532.635 59.632V52.144H551.451V106H532.635V98.512C531.163 101.008 529.051 102.992 526.299 104.464C523.611 105.936 520.443 106.672 516.795 106.672C512.507 106.672 508.603 105.552 505.083 103.312C501.627 101.072 498.875 97.872 496.827 93.712C494.843 89.488 493.851 84.592 493.851 79.024ZM532.635 79.024C532.635 75.568 531.675 72.848 529.755 70.864C527.899 68.88 525.595 67.888 522.843 67.888C520.027 67.888 517.691 68.88 515.835 70.864C513.979 72.784 513.051 75.504 513.051 79.024C513.051 82.48 513.979 85.232 515.835 87.28C517.691 89.264 520.027 90.256 522.843 90.256C525.595 90.256 527.899 89.264 529.755 87.28C531.675 85.296 532.635 82.544 532.635 79.024ZM585.117 106.672C580.253 106.672 575.901 105.872 572.061 104.272C568.285 102.608 565.277 100.368 563.037 97.552C560.861 94.672 559.645 91.44 559.389 87.856H577.629C577.885 89.584 578.685 90.928 580.029 91.888C581.373 92.848 583.037 93.328 585.021 93.328C586.557 93.328 587.773 93.008 588.669 92.368C589.565 91.728 590.013 90.896 590.013 89.872C590.013 88.528 589.277 87.536 587.805 86.896C586.333 86.256 583.901 85.552 580.509 84.784C576.669 84.016 573.469 83.152 570.909 82.192C568.349 81.232 566.109 79.664 564.189 77.488C562.333 75.312 561.405 72.368 561.405 68.656C561.405 65.456 562.269 62.576 563.997 60.016C565.725 57.392 568.253 55.312 571.581 53.776C574.973 52.24 579.037 51.472 583.773 51.472C590.813 51.472 596.349 53.2 600.381 56.656C604.413 60.112 606.749 64.656 607.389 70.288H590.397C590.077 68.56 589.309 67.248 588.093 66.352C586.941 65.392 585.373 64.912 583.389 64.912C581.853 64.912 580.669 65.2 579.837 65.776C579.069 66.352 578.685 67.152 578.685 68.176C578.685 69.456 579.421 70.448 580.893 71.152C582.365 71.792 584.733 72.464 587.997 73.168C591.901 74 595.133 74.928 597.693 75.952C600.317 76.976 602.589 78.64 604.509 80.944C606.493 83.184 607.485 86.256 607.485 90.16C607.485 93.296 606.557 96.112 604.701 98.608C602.909 101.104 600.317 103.088 596.925 104.56C593.597 105.968 589.661 106.672 585.117 106.672ZM668.191 78.448C668.191 79.92 668.095 81.392 667.903 82.864H632.287C632.479 85.808 633.279 88.016 634.687 89.488C636.159 90.896 638.015 91.6 640.255 91.6C643.391 91.6 645.631 90.192 646.975 87.376H667.039C666.207 91.088 664.575 94.416 662.143 97.36C659.775 100.24 656.767 102.512 653.119 104.176C649.471 105.84 645.439 106.672 641.023 106.672C635.711 106.672 630.975 105.552 626.815 103.312C622.719 101.072 619.487 97.872 617.119 93.712C614.815 89.552 613.663 84.656 613.663 79.024C613.663 73.392 614.815 68.528 617.119 64.432C619.423 60.272 622.623 57.072 626.719 54.832C630.879 52.592 635.647 51.472 641.023 51.472C646.335 51.472 651.039 52.56 655.135 54.736C659.231 56.912 662.431 60.048 664.735 64.144C667.039 68.176 668.191 72.944 668.191 78.448ZM648.991 73.744C648.991 71.44 648.223 69.648 646.687 68.368C645.151 67.024 643.231 66.352 640.927 66.352C638.623 66.352 636.735 66.992 635.263 68.272C633.791 69.488 632.831 71.312 632.383 73.744H648.991Z" fill="#09FFFB" fill-opacity="0.3"/>
<path d="M31.3964 112.672C23.5244 112.672 17.0604 110.816 12.0044 107.104C6.94838 103.328 4.22838 97.952 3.84438 90.976H23.9084C24.1004 93.344 24.8044 95.072 26.0204 96.16C27.2364 97.248 28.8044 97.792 30.7244 97.792C32.4524 97.792 33.8604 97.376 34.9484 96.544C36.1004 95.648 36.6764 94.432 36.6764 92.896C36.6764 90.912 35.7484 89.376 33.8924 88.288C32.0364 87.2 29.0284 85.984 24.8684 84.64C20.4524 83.168 16.8684 81.76 14.1164 80.416C11.4284 79.008 9.06038 76.992 7.01238 74.368C5.02838 71.68 4.03638 68.192 4.03638 63.904C4.03638 59.552 5.12438 55.84 7.30038 52.768C9.47638 49.632 12.4844 47.264 16.3244 45.664C20.1644 44.064 24.5164 43.264 29.3804 43.264C37.2524 43.264 43.5244 45.12 48.1964 48.832C52.9324 52.48 55.4604 57.632 55.7804 64.288H35.3324C35.2684 62.24 34.6284 60.704 33.4124 59.68C32.2604 58.656 30.7564 58.144 28.9004 58.144C27.4924 58.144 26.3404 58.56 25.4444 59.392C24.5484 60.224 24.1004 61.408 24.1004 62.944C24.1004 64.224 24.5804 65.344 25.5404 66.304C26.5644 67.2 27.8124 68 29.2844 68.704C30.7564 69.344 32.9324 70.176 35.8124 71.2C40.1004 72.672 43.6204 74.144 46.3724 75.616C49.1884 77.024 51.5884 79.04 53.5724 81.664C55.6204 84.224 56.6444 87.488 56.6444 91.456C56.6444 95.488 55.6204 99.104 53.5724 102.304C51.5884 105.504 48.6764 108.032 44.8364 109.888C41.0604 111.744 36.5804 112.672 31.3964 112.672ZM120.496 58.144V112H101.584V104.32C99.9836 106.752 97.7756 108.736 94.9596 110.272C92.1436 111.744 88.9116 112.48 85.2636 112.48C78.9916 112.48 74.0316 110.432 70.3836 106.336C66.7996 102.176 65.0076 96.544 65.0076 89.44V58.144H83.7276V87.04C83.7276 90.112 84.5276 92.544 86.1276 94.336C87.7916 96.064 89.9676 96.928 92.6556 96.928C95.4076 96.928 97.5836 96.064 99.1836 94.336C100.784 92.544 101.584 90.112 101.584 87.04V58.144H120.496ZM201.572 57.664C208.356 57.664 213.668 59.712 217.508 63.808C221.412 67.904 223.364 73.504 223.364 80.608V112H204.548V83.104C204.548 80.224 203.748 77.984 202.148 76.384C200.548 74.784 198.372 73.984 195.62 73.984C192.868 73.984 190.692 74.784 189.092 76.384C187.492 77.984 186.692 80.224 186.692 83.104V112H167.876V83.104C167.876 80.224 167.076 77.984 165.476 76.384C163.94 74.784 161.796 73.984 159.044 73.984C156.228 73.984 154.02 74.784 152.42 76.384C150.82 77.984 150.02 80.224 150.02 83.104V112H131.204V58.144H150.02V65.248C151.684 62.944 153.828 61.12 156.452 59.776C159.14 58.368 162.212 57.664 165.668 57.664C169.636 57.664 173.156 58.528 176.228 60.256C179.364 61.984 181.828 64.416 183.62 67.552C185.54 64.608 188.068 62.24 191.204 60.448C194.34 58.592 197.796 57.664 201.572 57.664ZM304.041 57.664C310.825 57.664 316.137 59.712 319.977 63.808C323.881 67.904 325.833 73.504 325.833 80.608V112H307.017V83.104C307.017 80.224 306.217 77.984 304.617 76.384C303.017 74.784 300.841 73.984 298.089 73.984C295.337 73.984 293.161 74.784 291.561 76.384C289.961 77.984 289.161 80.224 289.161 83.104V112H270.345V83.104C270.345 80.224 269.545 77.984 267.945 76.384C266.409 74.784 264.265 73.984 261.513 73.984C258.697 73.984 256.489 74.784 254.889 76.384C253.289 77.984 252.489 80.224 252.489 83.104V112H233.673V58.144H252.489V65.248C254.153 62.944 256.297 61.12 258.921 59.776C261.609 58.368 264.681 57.664 268.137 57.664C272.105 57.664 275.625 58.528 278.697 60.256C281.833 61.984 284.297 64.416 286.089 67.552C288.009 64.608 290.537 62.24 293.673 60.448C296.809 58.592 300.265 57.664 304.041 57.664ZM333.07 85.024C333.07 79.456 334.062 74.592 336.046 70.432C338.094 66.272 340.846 63.072 344.302 60.832C347.822 58.592 351.726 57.472 356.014 57.472C359.726 57.472 362.926 58.208 365.614 59.68C368.302 61.152 370.382 63.136 371.854 65.632V58.144H390.67V112H371.854V104.512C370.382 107.008 368.27 108.992 365.518 110.464C362.83 111.936 359.662 112.672 356.014 112.672C351.726 112.672 347.822 111.552 344.302 109.312C340.846 107.072 338.094 103.872 336.046 99.712C334.062 95.488 333.07 90.592 333.07 85.024ZM371.854 85.024C371.854 81.568 370.894 78.848 368.974 76.864C367.118 74.88 364.814 73.888 362.062 73.888C359.246 73.888 356.91 74.88 355.054 76.864C353.198 78.784 352.27 81.504 352.27 85.024C352.27 88.48 353.198 91.232 355.054 93.28C356.91 95.264 359.246 96.256 362.062 96.256C364.814 96.256 367.118 95.264 368.974 93.28C370.894 91.296 371.854 88.544 371.854 85.024ZM420.208 67.648C422.32 64.576 424.88 62.144 427.888 60.352C430.896 58.56 434.128 57.664 437.584 57.664V77.728H432.304C428.208 77.728 425.168 78.528 423.184 80.128C421.2 81.728 420.208 84.512 420.208 88.48V112H401.392V58.144H420.208V67.648ZM463.145 59.392V70.432H484.745V84.736H463.145V96.928H487.625V112H444.329V44.32H487.625V59.392H463.145ZM493.851 85.024C493.851 79.456 494.843 74.592 496.827 70.432C498.875 66.272 501.627 63.072 505.083 60.832C508.603 58.592 512.507 57.472 516.795 57.472C520.507 57.472 523.707 58.208 526.395 59.68C529.083 61.152 531.163 63.136 532.635 65.632V58.144H551.451V112H532.635V104.512C531.163 107.008 529.051 108.992 526.299 110.464C523.611 111.936 520.443 112.672 516.795 112.672C512.507 112.672 508.603 111.552 505.083 109.312C501.627 107.072 498.875 103.872 496.827 99.712C494.843 95.488 493.851 90.592 493.851 85.024ZM532.635 85.024C532.635 81.568 531.675 78.848 529.755 76.864C527.899 74.88 525.595 73.888 522.843 73.888C520.027 73.888 517.691 74.88 515.835 76.864C513.979 78.784 513.051 81.504 513.051 85.024C513.051 88.48 513.979 91.232 515.835 93.28C517.691 95.264 520.027 96.256 522.843 96.256C525.595 96.256 527.899 95.264 529.755 93.28C531.675 91.296 532.635 88.544 532.635 85.024ZM585.117 112.672C580.253 112.672 575.901 111.872 572.061 110.272C568.285 108.608 565.277 106.368 563.037 103.552C560.861 100.672 559.645 97.44 559.389 93.856H577.629C577.885 95.584 578.685 96.928 580.029 97.888C581.373 98.848 583.037 99.328 585.021 99.328C586.557 99.328 587.773 99.008 588.669 98.368C589.565 97.728 590.013 96.896 590.013 95.872C590.013 94.528 589.277 93.536 587.805 92.896C586.333 92.256 583.901 91.552 580.509 90.784C576.669 90.016 573.469 89.152 570.909 88.192C568.349 87.232 566.109 85.664 564.189 83.488C562.333 81.312 561.405 78.368 561.405 74.656C561.405 71.456 562.269 68.576 563.997 66.016C565.725 63.392 568.253 61.312 571.581 59.776C574.973 58.24 579.037 57.472 583.773 57.472C590.813 57.472 596.349 59.2 600.381 62.656C604.413 66.112 606.749 70.656 607.389 76.288H590.397C590.077 74.56 589.309 73.248 588.093 72.352C586.941 71.392 585.373 70.912 583.389 70.912C581.853 70.912 580.669 71.2 579.837 71.776C579.069 72.352 578.685 73.152 578.685 74.176C578.685 75.456 579.421 76.448 580.893 77.152C582.365 77.792 584.733 78.464 587.997 79.168C591.901 80 595.133 80.928 597.693 81.952C600.317 82.976 602.589 84.64 604.509 86.944C606.493 89.184 607.485 92.256 607.485 96.16C607.485 99.296 606.557 102.112 604.701 104.608C602.909 107.104 600.317 109.088 596.925 110.56C593.597 111.968 589.661 112.672 585.117 112.672ZM668.191 84.448C668.191 85.92 668.095 87.392 667.903 88.864H632.287C632.479 91.808 633.279 94.016 634.687 95.488C636.159 96.896 638.015 97.6 640.255 97.6C643.391 97.6 645.631 96.192 646.975 93.376H667.039C666.207 97.088 664.575 100.416 662.143 103.36C659.775 106.24 656.767 108.512 653.119 110.176C649.471 111.84 645.439 112.672 641.023 112.672C635.711 112.672 630.975 111.552 626.815 109.312C622.719 107.072 619.487 103.872 617.119 99.712C614.815 95.552 613.663 90.656 613.663 85.024C613.663 79.392 614.815 74.528 617.119 70.432C619.423 66.272 622.623 63.072 626.719 60.832C630.879 58.592 635.647 57.472 641.023 57.472C646.335 57.472 651.039 58.56 655.135 60.736C659.231 62.912 662.431 66.048 664.735 70.144C667.039 74.176 668.191 78.944 668.191 84.448ZM648.991 79.744C648.991 77.44 648.223 75.648 646.687 74.368C645.151 73.024 643.231 72.352 640.927 72.352C638.623 72.352 636.735 72.992 635.263 74.272C633.791 75.488 632.831 77.312 632.383 79.744H648.991Z" fill="#FBF4BC" fill-opacity="0.87"/>
<g clip-path="url(#clip0_12_2040)">
<mask id="mask0_12_2040" style="mask-type:luminance" maskUnits="userSpaceOnUse" x="230" y="29" width="132" height="103">
<path d="M362 29H230V131.915H362V29Z" fill="white"/>
<path d="M361.5 29.5V131.415H230.5V29.5H361.5Z" stroke="white"/>
</mask>
<g mask="url(#mask0_12_2040)">
<path d="M218.321 175.87L376.87 17.3213" stroke="#F52525" stroke-opacity="0.37" stroke-width="2.23729"/>
<path d="M218.321 161.167L376.87 2.6183" stroke="#F52525" stroke-opacity="0.37" stroke-width="2.23729"/>
<path d="M218.321 58.2453L376.87 -100.303" stroke="#F52525" stroke-opacity="0.37" stroke-width="2.23729"/>
<path d="M218.321 146.464L376.87 -12.0847" stroke="#F52525" stroke-opacity="0.37" stroke-width="2.23729"/>
<path d="M218.321 43.5423L376.87 -115.006" stroke="#F52525" stroke-opacity="0.37" stroke-width="2.23729"/>
<path d="M218.321 131.761L376.87 -26.7882" stroke="#F52525" stroke-opacity="0.37" stroke-width="2.23729"/>
<path d="M218.321 117.058L376.87 -41.4911" stroke="#F52525" stroke-opacity="0.37" stroke-width="2.23729"/>
<path d="M218.321 102.355L376.87 -56.1941" stroke="#F52525" stroke-opacity="0.37" stroke-width="2.23729"/>
<path d="M218.321 87.6517L376.87 -70.897" stroke="#F52525" stroke-opacity="0.37" stroke-width="2.23729"/>
<path d="M218.321 72.9487L376.87 -85.6" stroke="#F52525" stroke-opacity="0.37" stroke-width="2.23729"/>
<path d="M218.321 190.573L376.87 32.0242" stroke="#F52525" stroke-opacity="0.37" stroke-width="2.23729"/>
<path d="M218.321 205.276L376.87 46.7272" stroke="#F52525" stroke-opacity="0.37" stroke-width="2.23729"/>
<path d="M218.321 219.979L376.87 61.4307" stroke="#F52525" stroke-opacity="0.37" stroke-width="2.23729"/>
<path d="M218.321 234.682L376.87 76.1336" stroke="#F52525" stroke-opacity="0.37" stroke-width="2.23729"/>
<path d="M218.321 249.385L376.87 90.8366" stroke="#F52525" stroke-opacity="0.37" stroke-width="2.23729"/>
<path d="M218.321 264.088L376.87 105.54" stroke="#F52525" stroke-opacity="0.37" stroke-width="2.23729"/>
<path d="M218.321 278.791L376.87 120.242" stroke="#F52525" stroke-opacity="0.37" stroke-width="2.23729"/>
</g>
</g>
<g clip-path="url(#clip1_12_2040)">
<mask id="mask1_12_2040" style="mask-type:luminance" maskUnits="userSpaceOnUse" x="362" y="29" width="132" height="103">
<path d="M494 29H362V131.915H494V29Z" fill="white"/>
<path d="M493.5 29.5V131.415H362.5V29.5H493.5Z" stroke="white"/>
</mask>
<g mask="url(#mask1_12_2040)">
<path d="M350.321 175.87L508.87 17.3213" stroke="#F52525" stroke-opacity="0.37" stroke-width="2.23729"/>
<path d="M350.321 161.167L508.87 2.6183" stroke="#F52525" stroke-opacity="0.37" stroke-width="2.23729"/>
<path d="M350.321 58.2453L508.87 -100.303" stroke="#F52525" stroke-opacity="0.37" stroke-width="2.23729"/>
<path d="M350.321 146.464L508.87 -12.0847" stroke="#F52525" stroke-opacity="0.37" stroke-width="2.23729"/>
<path d="M350.321 43.5423L508.87 -115.006" stroke="#F52525" stroke-opacity="0.37" stroke-width="2.23729"/>
<path d="M350.321 131.761L508.87 -26.7882" stroke="#F52525" stroke-opacity="0.37" stroke-width="2.23729"/>
<path d="M350.321 117.058L508.87 -41.4911" stroke="#F52525" stroke-opacity="0.37" stroke-width="2.23729"/>
<path d="M350.321 102.355L508.87 -56.1941" stroke="#F52525" stroke-opacity="0.37" stroke-width="2.23729"/>
<path d="M350.321 87.6517L508.87 -70.897" stroke="#F52525" stroke-opacity="0.37" stroke-width="2.23729"/>
<path d="M350.321 72.9487L508.87 -85.6" stroke="#F52525" stroke-opacity="0.37" stroke-width="2.23729"/>
<path d="M350.321 190.573L508.87 32.0242" stroke="#F52525" stroke-opacity="0.37" stroke-width="2.23729"/>
<path d="M350.321 205.276L508.87 46.7272" stroke="#F52525" stroke-opacity="0.37" stroke-width="2.23729"/>
<path d="M350.321 219.979L508.87 61.4307" stroke="#F52525" stroke-opacity="0.37" stroke-width="2.23729"/>
<path d="M350.321 234.682L508.87 76.1336" stroke="#F52525" stroke-opacity="0.37" stroke-width="2.23729"/>
<path d="M350.321 249.385L508.87 90.8366" stroke="#F52525" stroke-opacity="0.37" stroke-width="2.23729"/>
<path d="M350.321 264.088L508.87 105.54" stroke="#F52525" stroke-opacity="0.37" stroke-width="2.23729"/>
<path d="M350.321 278.791L508.87 120.242" stroke="#F52525" stroke-opacity="0.37" stroke-width="2.23729"/>
</g>
</g>
<g clip-path="url(#clip2_12_2040)">
<mask id="mask2_12_2040" style="mask-type:luminance" maskUnits="userSpaceOnUse" x="494" y="29" width="132" height="103">
<path d="M626 29H494V131.915H626V29Z" fill="white"/>
<path d="M625.5 29.5V131.415H494.5V29.5H625.5Z" stroke="white"/>
</mask>
<g mask="url(#mask2_12_2040)">
<path d="M482.321 175.87L640.87 17.3213" stroke="#F52525" stroke-opacity="0.37" stroke-width="2.23729"/>
<path d="M482.321 161.167L640.87 2.6183" stroke="#F52525" stroke-opacity="0.37" stroke-width="2.23729"/>
<path d="M482.321 58.2453L640.87 -100.303" stroke="#F52525" stroke-opacity="0.37" stroke-width="2.23729"/>
<path d="M482.321 146.464L640.87 -12.0847" stroke="#F52525" stroke-opacity="0.37" stroke-width="2.23729"/>
<path d="M482.321 43.5423L640.87 -115.006" stroke="#F52525" stroke-opacity="0.37" stroke-width="2.23729"/>
<path d="M482.321 131.761L640.87 -26.7882" stroke="#F52525" stroke-opacity="0.37" stroke-width="2.23729"/>
<path d="M482.321 117.058L640.87 -41.4911" stroke="#F52525" stroke-opacity="0.37" stroke-width="2.23729"/>
<path d="M482.321 102.355L640.87 -56.1941" stroke="#F52525" stroke-opacity="0.37" stroke-width="2.23729"/>
<path d="M482.321 87.6517L640.87 -70.897" stroke="#F52525" stroke-opacity="0.37" stroke-width="2.23729"/>
<path d="M482.321 72.9487L640.87 -85.6" stroke="#F52525" stroke-opacity="0.37" stroke-width="2.23729"/>
<path d="M482.321 190.573L640.87 32.0242" stroke="#F52525" stroke-opacity="0.37" stroke-width="2.23729"/>
<path d="M482.321 205.276L640.87 46.7272" stroke="#F52525" stroke-opacity="0.37" stroke-width="2.23729"/>
<path d="M482.321 219.979L640.87 61.4307" stroke="#F52525" stroke-opacity="0.37" stroke-width="2.23729"/>
<path d="M482.321 234.682L640.87 76.1336" stroke="#F52525" stroke-opacity="0.37" stroke-width="2.23729"/>
<path d="M482.321 249.385L640.87 90.8366" stroke="#F52525" stroke-opacity="0.37" stroke-width="2.23729"/>
<path d="M482.321 264.088L640.87 105.54" stroke="#F52525" stroke-opacity="0.37" stroke-width="2.23729"/>
<path d="M482.321 278.791L640.87 120.242" stroke="#F52525" stroke-opacity="0.37" stroke-width="2.23729"/>
</g>
</g>
<mask id="mask3_12_2040" style="mask-type:luminance" maskUnits="userSpaceOnUse" x="626" y="29" width="58" height="103">
<path d="M684 29H626V132H684V29Z" fill="white"/>
<path d="M683.5 29.5V131.5H626.5V29.5H683.5Z" stroke="white"/>
</mask>
<g mask="url(#mask3_12_2040)">
<path d="M614.321 175.87L772.87 17.3213" stroke="#F52525" stroke-opacity="0.37" stroke-width="2.23729"/>
<path d="M614.321 161.167L772.87 2.6183" stroke="#F52525" stroke-opacity="0.37" stroke-width="2.23729"/>
<path d="M614.321 58.2453L772.87 -100.303" stroke="#F52525" stroke-opacity="0.37" stroke-width="2.23729"/>
<path d="M614.321 146.464L772.87 -12.0847" stroke="#F52525" stroke-opacity="0.37" stroke-width="2.23729"/>
<path d="M614.321 43.5423L772.87 -115.006" stroke="#F52525" stroke-opacity="0.37" stroke-width="2.23729"/>
<path d="M614.321 131.761L772.87 -26.7882" stroke="#F52525" stroke-opacity="0.37" stroke-width="2.23729"/>
<path d="M614.321 117.058L772.87 -41.4911" stroke="#F52525" stroke-opacity="0.37" stroke-width="2.23729"/>
<path d="M614.321 102.355L772.87 -56.1941" stroke="#F52525" stroke-opacity="0.37" stroke-width="2.23729"/>
<path d="M614.321 87.6517L772.87 -70.897" stroke="#F52525" stroke-opacity="0.37" stroke-width="2.23729"/>
<path d="M614.321 72.9487L772.87 -85.6" stroke="#F52525" stroke-opacity="0.37" stroke-width="2.23729"/>
<path d="M614.321 190.573L772.87 32.0242" stroke="#F52525" stroke-opacity="0.37" stroke-width="2.23729"/>
<path d="M614.321 205.276L772.87 46.7272" stroke="#F52525" stroke-opacity="0.37" stroke-width="2.23729"/>
<path d="M614.321 219.979L772.87 61.4307" stroke="#F52525" stroke-opacity="0.37" stroke-width="2.23729"/>
<path d="M614.321 234.682L772.87 76.1336" stroke="#F52525" stroke-opacity="0.37" stroke-width="2.23729"/>
<path d="M614.321 249.385L772.87 90.8366" stroke="#F52525" stroke-opacity="0.37" stroke-width="2.23729"/>
<path d="M614.321 264.088L772.87 105.54" stroke="#F52525" stroke-opacity="0.37" stroke-width="2.23729"/>
<path d="M614.321 278.791L772.87 120.242" stroke="#F52525" stroke-opacity="0.37" stroke-width="2.23729"/>
</g>
<defs>
<clipPath id="clip0_12_2040">
<rect width="132" height="103" fill="white" transform="translate(230 29)"/>
</clipPath>
<clipPath id="clip1_12_2040">
<rect width="132" height="103" fill="white" transform="translate(362 29)"/>
</clipPath>
<clipPath id="clip2_12_2040">
<rect width="132" height="103" fill="white" transform="translate(494 29)"/>
</clipPath>
</defs>
</svg>
